<?xml version="1.0" standalone="no"?>
<!DOCTYPE svg PUBLIC "-//W3C//DTD SVG 20010904//EN"
 "http://www.w3.org/TR/2001/REC-SVG-20010904/DTD/svg10.dtd">
<svg version="1.0" xmlns="http://www.w3.org/2000/svg"
 width="922.000000pt" height="278.000000pt" viewBox="0 0 922.000000 278.000000"
 preserveAspectRatio="xMidYMid meet">

<g transform="translate(0.000000,278.000000) scale(0.100000,-0.100000)"
fill="#000000" stroke="none">
<path d="M452 2765 c-65 -20 -116 -60 -159 -123 -21 -31 -58 -84 -82 -117 -80
-110 -140 -251 -178 -417 -12 -53 -16 -120 -16 -248 0 -202 14 -274 84 -419
33 -68 58 -101 123 -166 93 -92 172 -137 288 -161 95 -21 257 -13 348 15 202
63 348 228 412 466 29 108 31 384 5 520 -43 216 -111 373 -208 478 -74 82
-136 113 -239 122 -41 4 -117 20 -169 36 -103 32 -144 35 -209 14z m354 -165
c131 -64 236 -267 275 -531 15 -108 6 -371 -16 -459 -43 -165 -153 -309 -261
-341 -73 -21 -206 -16 -276 11 -122 46 -220 176 -253 335 -32 156 -28 414 8
535 l13 45 27 -58 c51 -111 182 -209 317 -238 107 -23 282 14 317 67 13 21 14
31 3 68 l-12 44 -45 -31 c-41 -29 -51 -32 -121 -32 -63 1 -86 5 -128 27 -65
34 -128 105 -154 174 -24 66 -27 178 -5 250 17 58 66 121 109 140 48 21 152
18 202 -6z"/>
<path d="M2516 2744 c-5 -11 -12 -106 -17 -213 -6 -140 -12 -197 -21 -203 -7
-4 -63 -8 -124 -8 -93 0 -116 -3 -134 -18 -17 -13 -21 -24 -16 -40 10 -32 50
-49 157 -68 52 -9 99 -22 106 -28 10 -8 10 -67 2 -261 -21 -475 7 -663 117
-785 65 -73 152 -98 227 -66 39 16 104 87 137 149 l23 44 38 -38 c128 -128
538 -111 603 25 40 85 10 127 -237 329 -132 107 -149 132 -145 208 9 127 131
192 223 119 45 -35 63 -37 99 -9 52 41 90 155 66 199 -50 94 -374 44 -531 -82
-67 -54 -94 -110 -94 -193 1 -63 8 -90 43 -157 2 -5 -8 -8 -22 -8 -28 0 -25 6
-76 -185 -45 -168 -121 -267 -182 -234 -11 6 -30 32 -41 57 -20 44 -22 66 -25
307 -3 241 9 579 21 591 15 16 98 26 231 29 81 2 150 6 153 9 3 3 2 17 -1 31
-11 43 -62 58 -218 64 -103 5 -141 10 -152 21 -12 13 -12 36 0 170 20 211 20
210 -40 233 -27 9 -74 20 -106 24 -50 5 -58 3 -64 -13z m744 -1301 c157 -124
185 -191 93 -229 -58 -25 -113 -5 -217 74 -44 34 -69 46 -93 46 -26 0 -32 3
-27 16 13 33 54 204 54 227 0 23 4 21 63 -29 34 -30 91 -77 127 -105z"/>
<path d="M3744 2749 c-4 -8 -12 -95 -17 -194 -4 -99 -11 -191 -15 -205 -7 -25
-10 -25 -132 -30 -69 -3 -131 -9 -137 -13 -19 -12 -16 -51 5 -69 20 -18 69
-34 132 -43 25 -4 62 -11 83 -16 l38 -10 -7 -352 c-6 -378 -1 -446 45 -568 64
-170 183 -244 304 -191 51 23 114 99 156 190 23 49 41 60 41 24 0 -34 58 -138
94 -169 37 -33 46 -37 126 -48 25 -4 59 -9 76 -12 80 -13 167 74 230 229 l31
77 16 -57 c28 -99 110 -171 196 -172 55 0 119 37 164 96 l41 53 11 -34 c31
-88 91 -148 165 -164 25 -5 65 -14 89 -19 87 -20 149 25 213 156 17 34 33 60
36 58 2 -3 1 -52 -3 -109 l-7 -105 -65 -53 c-112 -93 -188 -194 -259 -344 -64
-134 -86 -227 -88 -360 -1 -99 1 -114 23 -152 14 -24 41 -54 60 -67 72 -50
109 -59 246 -63 117 -4 133 -2 162 16 109 68 144 250 143 721 -1 124 -1 235
-1 248 1 19 6 22 47 22 58 0 84 14 84 46 0 19 -8 28 -35 40 -19 7 -48 14 -64
14 -28 0 -30 2 -36 55 -4 31 -3 152 3 269 9 181 13 221 31 261 24 55 20 66
-38 83 -21 7 -42 20 -45 29 -4 9 -2 52 4 96 13 89 7 144 -21 199 -25 49 -75
81 -169 109 -41 12 -96 32 -122 45 -53 27 -79 29 -129 12 -53 -18 -84 -44
-125 -105 -81 -123 -120 -300 -132 -598 -7 -176 -8 -184 -37 -240 -72 -139
-147 -122 -176 39 -15 89 -7 276 15 338 20 56 12 79 -34 98 -36 15 -38 22 -43
165 -5 156 -41 219 -141 246 -22 6 -63 23 -91 37 -42 22 -63 26 -132 27 -75 0
-85 -2 -125 -30 -110 -78 -179 -258 -207 -540 -16 -159 -78 -371 -132 -446
-24 -34 -72 -59 -100 -52 -30 8 -59 84 -71 182 -12 107 5 740 22 771 13 25 89
35 252 35 139 0 153 6 123 52 -25 37 -59 45 -213 52 -81 4 -147 12 -153 18 -8
8 -7 60 5 189 l16 179 -21 17 c-42 35 -190 61 -205 37z m1925 -665 c56 -47 80
-200 45 -282 -9 -20 -20 -87 -25 -148 -24 -285 -129 -479 -244 -450 -102 26
-114 493 -19 731 59 147 167 213 243 149z m-953 -35 c48 -45 73 -202 37 -241
-12 -13 -20 -57 -30 -161 -32 -323 -79 -447 -181 -478 -54 -16 -84 3 -106 67
-71 210 -27 630 81 772 57 75 144 93 199 41z m994 -1625 c-19 -144 -62 -246
-117 -275 -38 -20 -89 -16 -116 9 -113 106 -11 534 176 737 l62 69 3 -230 c1
-126 -2 -266 -8 -310z"/>
<path d="M7033 2269 c-131 -65 -208 -263 -233 -603 -12 -159 -37 -269 -84
-372 -31 -67 -73 -114 -102 -114 -22 0 -52 50 -65 108 -16 76 -14 296 5 406 8
50 27 130 42 179 31 99 29 109 -25 141 -22 13 -69 22 -154 30 l-122 11 -5 75
c-3 41 -9 81 -13 88 -13 19 -68 14 -117 -10 l-45 -23 0 -300 c0 -252 -3 -315
-19 -393 -20 -100 -17 -122 13 -122 51 0 87 110 122 365 12 88 26 166 32 173
5 6 24 12 41 12 59 0 59 -2 50 -171 -16 -269 5 -432 69 -552 38 -73 87 -114
145 -123 93 -14 160 29 217 139 17 31 33 53 36 49 4 -4 12 -24 18 -44 28 -85
105 -158 170 -158 18 0 51 -5 71 -11 91 -27 175 31 239 164 21 45 43 93 48
107 9 23 11 20 28 -32 45 -144 178 -207 291 -137 20 12 55 48 79 80 l42 57 7
-71 c8 -89 22 -111 80 -126 59 -15 169 -14 184 1 7 7 12 33 12 59 0 149 80
559 109 559 4 0 11 -101 14 -225 5 -190 8 -231 24 -262 25 -51 60 -73 124 -79
85 -8 99 5 119 106 27 131 77 294 127 413 25 59 47 107 49 107 2 0 1 -73 -2
-162 -10 -286 39 -443 159 -504 40 -21 118 -28 160 -15 107 36 237 288 237
459 0 48 -2 52 -24 52 -35 0 -46 -19 -67 -117 -24 -112 -71 -208 -112 -234
-62 -37 -97 -18 -123 68 -35 114 -8 541 36 568 17 11 11 61 -11 89 -12 15 -44
40 -73 56 -41 24 -63 30 -113 30 l-63 0 -20 -39 c-29 -58 -69 -162 -145 -376
-37 -104 -71 -194 -76 -200 -5 -5 -9 91 -9 238 l0 247 -27 17 c-16 11 -52 19
-95 21 -82 5 -96 -4 -138 -88 -29 -58 -79 -207 -100 -300 -7 -30 -16 -62 -21
-70 -5 -8 -9 126 -9 303 l0 317 -27 11 c-16 6 -62 12 -103 13 l-75 1 1 -45 c0
-25 -3 -164 -7 -310 -7 -242 -10 -273 -34 -353 -30 -103 -47 -142 -83 -179
-46 -50 -95 -27 -123 57 -22 63 -19 316 4 382 21 61 14 83 -33 103 -16 7 -30
13 -31 14 -1 0 -4 60 -8 131 -6 104 -12 138 -29 172 -26 50 -62 79 -113 93
-21 6 -67 24 -101 40 -79 38 -161 41 -225 9z m251 -210 c38 -30 54 -68 66
-150 10 -68 9 -74 -11 -95 -18 -20 -24 -45 -35 -161 -32 -327 -72 -442 -169
-478 -56 -22 -85 -12 -109 38 -54 115 -57 430 -6 615 35 125 84 206 145 240
33 18 90 14 119 -9z"/>
<path d="M1447 2143 c-4 -3 -7 -167 -7 -364 0 -391 8 -468 56 -567 16 -33 42
-65 66 -82 46 -33 133 -54 196 -47 78 9 138 91 181 247 20 71 31 96 31 71 0
-22 50 -115 78 -145 83 -89 251 -87 343 5 42 42 58 94 40 128 -20 37 -55 27
-96 -28 -73 -100 -128 -74 -166 79 -14 56 -19 311 -9 472 7 103 -7 119 -112
126 -40 2 -89 0 -108 -5 -33 -9 -35 -11 -31 -49 14 -152 -9 -467 -43 -579 -29
-94 -82 -154 -126 -140 -55 18 -69 125 -70 537 0 287 0 288 -22 302 -50 32
-183 58 -201 39z"/>
</g>
</svg>
